<?xml version="1.0" encoding="UTF-8" standalone="no"?>
<svg
   xmlns:dc="http://purl.org/dc/elements/1.1/"
   xmlns:cc="http://creativecommons.org/ns#"
   xmlns:rdf="http://www.w3.org/1999/02/22-rdf-syntax-ns#"
   xmlns:svg="http://www.w3.org/2000/svg"
   xmlns="http://www.w3.org/2000/svg"
   xmlns:sodipodi="http://sodipodi.sourceforge.net/DTD/sodipodi-0.dtd"
   xmlns:inkscape="http://www.inkscape.org/namespaces/inkscape"
   inkscape:version="1.0 (6e3e5246a0, 2020-05-07)"
   sodipodi:docname="corredor2.png.svg"
   viewBox="0 0 200 200"
   height="200"
   width="200"
   id="svg60"
   version="1.1">
  <metadata
     id="metadata66">
    <rdf:RDF>
      <cc:Work
         rdf:about="">
        <dc:format>image/svg+xml</dc:format>
        <dc:type
           rdf:resource="http://purl.org/dc/dcmitype/StillImage" />
        <dc:title></dc:title>
      </cc:Work>
    </rdf:RDF>
  </metadata>
  <defs
     id="defs64" />
  <sodipodi:namedview
     inkscape:current-layer="g68"
     inkscape:window-maximized="1"
     inkscape:window-y="27"
     inkscape:window-x="72"
     inkscape:cy="63.246554"
     inkscape:cx="100"
     inkscape:zoom="3.265"
     fit-margin-bottom="0"
     fit-margin-right="0"
     fit-margin-left="0"
     fit-margin-top="0"
     showgrid="false"
     id="namedview62"
     inkscape:window-height="836"
     inkscape:window-width="1528"
     inkscape:pageshadow="2"
     inkscape:pageopacity="0"
     guidetolerance="10"
     gridtolerance="10"
     objecttolerance="10"
     borderopacity="1"
     bordercolor="#666666"
     pagecolor="#ffffff" />
  <g
     id="g68"
     inkscape:label="Image"
     inkscape:groupmode="layer">
    <g
       transform="translate(0.01276036,-3.5262858)"
       id="g72">
      <path
         id="path96"
         d="m 114.232,166 c 0,-1.925 0.2058,-2.7125 0.45733,-1.75 0.25152,0.9625 0.25152,2.5375 0,3.5 -0.25153,0.9625 -0.45733,0.175 -0.45733,-1.75 z"
         style="fill:#d8d8d8;fill-opacity:1" />
      <path
         id="path94"
         d="m 114.28601,173.5 c 0.008,-2.75 0.20172,-3.75631 0.43157,-2.23625 0.22986,1.52006 0.22371,3.77006 -0.0136,5 -0.23736,1.22994 -0.42542,-0.0137 -0.41792,-2.76375 z m 23.79294,-19.08333 c 0.048,-1.16495 0.28494,-1.4019 0.60416,-0.60417 0.28887,0.72187 0.25335,1.58437 -0.0789,1.91667 -0.3323,0.33229 -0.56864,-0.25834 -0.52522,-1.3125 z M 97.8125,45.316886 c 0.721875,-0.288871 1.584375,-0.253344 1.916667,0.07895 0.332293,0.332292 -0.258334,0.568641 -1.3125,0.52522 -1.164943,-0.04798 -1.4019,-0.284941 -0.604167,-0.604167 z m 4,0 c 0.72187,-0.288871 1.58437,-0.253344 1.91667,0.07895 0.33229,0.332292 -0.25834,0.568641 -1.3125,0.52522 -1.16495,-0.04798 -1.4019,-0.284941 -0.60417,-0.604167 z"
         style="fill:#d0d0d0;fill-opacity:1" />
      <path
         id="path92"
         d="m 170.8125,84.316886 c 0.72187,-0.288871 1.58437,-0.253344 1.91667,0.07895 0.33229,0.332292 -0.25834,0.568641 -1.3125,0.52522 -1.16495,-0.04798 -1.4019,-0.284941 -0.60417,-0.604167 z M 55,75.622445 c 0,-0.207656 0.7875,-0.995156 1.75,-1.75 C 58.336056,72.628574 58.371426,72.663944 57.127555,74.25 55.821186,75.915748 55,76.445479 55,75.622445 Z"
         style="fill:#bebebe;fill-opacity:1" />
      <path
         id="path90"
         d="m 58,72.622445 c 0,-0.207656 0.7875,-0.995156 1.75,-1.75 C 61.336056,69.628574 61.371426,69.663944 60.127555,71.25 58.821186,72.915748 58,73.445479 58,72.622445 Z"
         style="fill:#b7b7b7;fill-opacity:1" />
      <path
         id="path88"
         d="M 63,67.5 C 64.291745,66.125 65.573628,65 65.848628,65 66.123628,65 65.291745,66.125 64,67.5 62.708255,68.875 61.426372,70 61.151372,70 60.876372,70 61.708255,68.875 63,67.5 Z"
         style="fill:#adadad;fill-opacity:1" />
      <path
         id="path86"
         d="m 144.8125,103.31689 c 0.72187,-0.28887 1.58437,-0.25335 1.91667,0.0789 0.33229,0.3323 -0.25834,0.56864 -1.3125,0.52522 -1.16495,-0.048 -1.4019,-0.28494 -0.60417,-0.60416 z m 33,-19.000004 c 0.72187,-0.288871 1.58437,-0.253344 1.91667,0.07895 0.33229,0.332292 -0.25834,0.568641 -1.3125,0.52522 -1.16495,-0.04798 -1.4019,-0.284941 -0.60417,-0.604167 z"
         style="fill:#9b9b9b;fill-opacity:1" />
      <path
         id="path84"
         d="m 138.15789,144 c 0,-1.375 0.22698,-1.9375 0.50439,-1.25 0.27741,0.6875 0.27741,1.8125 0,2.5 -0.27741,0.6875 -0.50439,0.125 -0.50439,-1.25 z m 9.65461,-40.68311 c 0.72187,-0.28887 1.58437,-0.25335 1.91667,0.0789 0.33229,0.3323 -0.25834,0.56864 -1.3125,0.52522 -1.16495,-0.048 -1.4019,-0.28494 -0.60417,-0.60416 z M 138.87244,58.25 C 137.62857,56.663944 137.66394,56.628574 139.25,57.872445 140.91575,59.178814 141.44548,60 140.62244,60 c -0.20765,0 -0.99515,-0.7875 -1.75,-1.75 z"
         style="fill:#8c8c8c;fill-opacity:1" />
      <path
         id="path82"
         d="m 85,75.622445 c 0,-0.207656 0.7875,-0.995156 1.75,-1.75 C 88.336056,72.628574 88.371426,72.663944 87.127555,74.25 85.821186,75.915748 85,76.445479 85,75.622445 Z"
         style="fill:#737373;fill-opacity:1" />
      <path
         id="path80"
         d="m 137.19495,177.5 c 0.0204,-1.65 0.2445,-2.20394 0.49804,-1.23097 0.25354,0.97297 0.23687,2.32297 -0.0371,3 -0.27393,0.67703 -0.48137,-0.11903 -0.46099,-1.76903 z"
         style="fill:#616161;fill-opacity:1" />
      <path
         id="path78"
         d="m 137.07895,173.41667 c 0.048,-1.16495 0.28494,-1.4019 0.60416,-0.60417 0.28887,0.72187 0.25335,1.58437 -0.0789,1.91667 -0.3323,0.33229 -0.56864,-0.25834 -0.52522,-1.3125 z"
         style="fill:#4f4f4f;fill-opacity:1" />
      <path
         id="path76"
         d="m 138.07895,134.41667 c 0.048,-1.16495 0.28494,-1.4019 0.60416,-0.60417 0.28887,0.72187 0.25335,1.58437 -0.0789,1.91667 -0.3323,0.33229 -0.56864,-0.25834 -0.52522,-1.3125 z m 38.73355,-30.09978 c 0.72187,-0.28887 1.58437,-0.25335 1.91667,0.0789 0.33229,0.3323 -0.25834,0.56864 -1.3125,0.52522 -1.16495,-0.048 -1.4019,-0.28494 -0.60417,-0.60416 z m -34,-54.000004 c 0.72187,-0.288871 1.58437,-0.253344 1.91667,0.07895 0.33229,0.332292 -0.25834,0.568641 -1.3125,0.52522 -1.16495,-0.04798 -1.4019,-0.284941 -0.60417,-0.604167 z"
         style="fill:#414141;fill-opacity:1" />
      <path
         id="path74"
         d="m 121,187.29377 c -0.825,-0.30158 -2.5125,-1.4695 -3.75,-2.59536 -2.20167,-2.00307 -2.25,-2.5144 -2.25,-23.80463 v -21.75759 l -2.9112,-2.07296 c -4.57514,-3.25778 -13.322875,-7.04273 -16.301883,-7.05346 -2.273831,-0.008 -4.297599,1.97038 -12.5,12.22085 -5.983124,7.47705 -10.832191,12.59639 -12.47634,13.17173 -2.007696,0.70257 -4.653068,0.37056 -10.43604,-1.30975 -11.355121,-3.29937 -43.414346,-15.82351 -45.69174,-17.84977 -5.1950684,-4.6222 -5.4765528,-12.1111 -0.649447,-17.27853 3.797434,-4.06517 7.432323,-3.86379 19.551273,1.08314 18.332976,7.48349 26.545377,10.08956 27.997372,8.88451 0.730079,-0.60591 2.543673,-3.20097 4.030208,-5.7668 3.503877,-6.04786 6.794505,-11.24392 18.543541,-29.281113 C 93.339953,79.784381 97.999947,70.666614 96.690942,69.357609 95.173551,67.840218 90.119393,70.652766 84.091944,76.368726 69.522985,90.184785 62.548374,95 57.105424,95 53.188955,95 49.167173,91.380502 48.347561,87.118155 47.713984,83.823274 48.080451,83.360024 62.598631,69.1034 78.309861,53.675219 84.785089,48.682929 91.440832,46.866558 c 5.661336,-1.544995 20.573888,-0.413926 29.065208,2.204503 15.38823,4.745194 21.71167,10.210108 29.47875,25.476431 3.40398,6.690573 5.13048,9.044339 7.01521,9.563932 1.375,0.379069 7.58485,0.734072 13.79966,0.788896 13.49563,0.119052 16.57719,1.277323 18.23895,6.855505 1.37867,4.627929 0.13181,8.431175 -3.55632,10.847735 -2.3328,1.52851 -4.72508,1.63739 -22.74618,1.03525 -15.15534,-0.50638 -20.69572,-1.03755 -22.38801,-2.14638 -1.23685,-0.81042 -4.12139,-4.679778 -6.4101,-8.598586 l -4.16128,-7.125105 -2.28711,2.36563 C 126.23169,89.435466 122.69143,94.55 119.62235,99.5 c -4.62434,7.45843 -5.33115,9.17129 -4.1265,10 0.7995,0.55 4.1626,2.5371 7.47355,4.41578 3.31094,1.87869 8.24371,5.47869 10.96169,8 l 4.9418,4.58422 -0.87808,27.27841 c -0.48294,15.00312 -1.1727,28.2067 -1.5328,29.34129 -1.1367,3.58144 -10.30935,6.05765 -15.46201,4.17407 z M 132.83989,47.113416 c -9.91584,-6.28844 -11.86705,-20.095007 -4.02627,-28.489515 9.74279,-10.4308467 26.39186,-7.917172 32.29634,4.876099 2.54694,5.518487 2.34441,10.195504 -0.70663,16.318156 C 156.89995,46.848508 151.62405,50 143.35792,50 c -4.8593,0 -6.81092,-0.535604 -10.51803,-2.886584 z"
         style="fill:#333333;fill-opacity:1" />
    </g>
  </g>
</svg>
